<?xml version="1.0" encoding="utf-8"?>
<!-- Generator: Adobe Illustrator 27.1.0, SVG Export Plug-In . SVG Version: 6.00 Build 0)  -->
<svg version="1.1" xmlns="http://www.w3.org/2000/svg" xmlns:xlink="http://www.w3.org/1999/xlink" x="0px" y="0px"
	 viewBox="0 0 877.79 358.47" style="enable-background:new 0 0 877.79 358.47;" xml:space="preserve">
<style type="text/css">
	.st0{fill:#5271FF;}
	.st1{fill:#3232AF;}
	.st2{fill:#FF924E;}
	.st3{font-family:'LazyDog';}
	.st4{font-size:137px;}
	.st5{fill:none;}
	.st6{font-family:'RusticPrinted';}
	.st7{font-size:56px;}
</style>
<g id="Capa_1">
</g>
<g id="Capa_2">
	<g>
		<g>
			<path class="st0" d="M81.99,203.59c0.87-0.04,1.73-0.28,2.47-0.74c0.73-0.45,1.36-1.08,1.79-1.83c0.19-0.34,0.26-0.77,0.15-1.16
				c-0.1-0.35-0.36-0.72-0.69-0.9c-0.35-0.18-0.77-0.28-1.16-0.15c-0.37,0.12-0.7,0.34-0.9,0.69c-0.09,0.15-0.19,0.3-0.29,0.44
				c0.08-0.1,0.16-0.2,0.23-0.3c-0.18,0.23-0.39,0.44-0.63,0.62c0.1-0.08,0.2-0.16,0.3-0.23c-0.26,0.2-0.54,0.36-0.84,0.49
				c0.12-0.05,0.24-0.1,0.36-0.15c-0.29,0.12-0.59,0.2-0.89,0.25c0.13-0.02,0.27-0.04,0.4-0.05c-0.1,0.01-0.21,0.02-0.31,0.03
				c-0.4,0.02-0.77,0.15-1.06,0.44c-0.26,0.26-0.46,0.69-0.44,1.06c0.02,0.39,0.14,0.79,0.44,1.06
				C81.21,203.41,81.59,203.61,81.99,203.59L81.99,203.59z"/>
		</g>
	</g>
	<g>
		<g>
			<path class="st1" d="M20.19,334.67c5.78-22.92,14.84-44.39,26.11-65.09c11.58-21.28,25.12-41.41,39-61.24
				c1.6-2.29,3.12-4.65,4.76-6.59c1.82-2.14,3.79-4.14,5.83-6.08c4.16-3.95,8.57-7.63,12.56-11.76c4.12-4.25,7.55-9.3,10.67-14.32
				c3.04-4.88,5.72-9.99,8.05-15.24c9.43-21.26,13.45-44.39,14.55-67.51c0.28-5.8,0.18-11.62,0.77-17.41
				c0.56-5.52,1.81-11.42,3.76-16.89c1.87-5.25,4.89-10.13,8.35-14.4c3.55-4.38,7.55-8.67,12.15-11.76
				c4.67-3.13,9.76-5.82,14.78-7.66c2.64-0.97,5.35-1.78,8.09-2.43c2.59-0.61,5.41-1.11,7.64-1.35c5.7-0.61,11.47-0.53,17.17,0.17
				c5.57,0.68,11.83,2.69,17.36,4.87c10.83,4.27,21.11,9.62,31.25,15.3c10.24,5.73,20.54,11.46,31.67,15.31
				c2.77,0.96,5.58,1.78,8.43,2.47c3.39,0.81,6.69,0.61,10.1-0.02c2.7-0.5,5.71-1.43,8.16-1.62c0.68-0.05,1.35-0.07,2.03-0.03
				c0.72,0.04-0.62-0.17,0.06,0.02c0.19,0.06,0.4,0.11,0.6,0.15c0.75,0.15,0.3,0.09,0.06-0.02c0.24,0.11,0.48,0.24,0.72,0.37
				c0.23,0.14,0.46,0.28,0.68,0.44c-0.65-0.44,0.08,0.07,0.21,0.2c1.35,1.33,2.49,3.09,3.26,5c0.79,1.93,1.28,4.44,1.44,6.38
				c0.21,2.53,0.22,5.08,0.02,7.61c-0.05,0.62-0.11,1.25-0.19,1.87c-0.09,0.78,0.09-0.58-0.03,0.19c-0.04,0.23-0.07,0.46-0.11,0.69
				c-0.22,1.3-0.49,2.59-0.82,3.86c-1.26,4.9-2.84,8.46-5.69,12.83c-1.47,2.25-2.35,3.38-4.19,5.38c-1.73,1.88-3.6,3.63-5.58,5.23
				c-0.66,0.53-1.57,1.2-2.63,1.91c-1.55,1.05-2.9,1.98-3.84,3.68c-0.09,0.17-0.56,1.13-0.12,0.47c0.42-0.64-0.28,0.12-0.53,0.28
				c-0.67,0.42-1.34,0.83-2.03,1.23c-1.42,0.83-2.86,1.63-4.33,2.38c-5.19,2.67-10.46,4.69-16.06,6.46
				c-5.64,1.78-11.37,3.23-17.11,4.65c-2.91,0.72-5.83,1.43-8.74,2.17c-2.91,0.74-6,1.28-8.55,2.95c-10.34,6.8-10.41,20.43-11,31.45
				c-0.35,6.47-0.37,12.95,0.33,19.4c0.26,2.42,1.88,4.5,4.5,4.5c2.23,0,4.76-2.07,4.5-4.5c-0.74-6.87-0.66-13.77-0.25-20.66
				c0.34-5.82,0.28-11.1,2.24-16.45c0.1-0.28,0.2-0.55,0.32-0.83c-0.27,0.65,0.03-0.04,0.08-0.14c0.26-0.52,0.52-1.05,0.82-1.55
				c0.29-0.5,0.61-0.99,0.95-1.46c-0.11,0.16-0.49,0.54,0.1-0.11c0.24-0.27,0.48-0.54,0.73-0.79c1.02-1.03,0.91-0.95,2.2-1.64
				c0.86-0.46,2.46-0.71,3.8-1.06c5.88-1.52,11.79-2.9,17.67-4.43c11.98-3.14,23.84-7.19,34.4-13.79c1.48-0.93,3.12-2.03,3.77-3.75
				c0.55-1.46-0.19,0.31-0.31,0.01c0-0.01,0.72-0.47,0.83-0.54c0.68-0.46,1.35-0.93,2.01-1.41c2.25-1.66,4.42-3.44,6.41-5.4
				c3.76-3.7,7.05-8.01,9.54-12.67c5.24-9.81,7.02-20.88,5.45-31.85c-0.71-5-3.2-10.63-7.04-14.03c-2.34-2.07-5-3.3-8.11-3.62
				c-3.13-0.32-6.39,0.47-9.43,1.16c-2.8,0.63-5.31,1.43-8.16,0.98c-2.35-0.37-5.57-1.45-8.13-2.31
				c-5.52-1.84-10.38-4.01-15.59-6.64c-10.45-5.27-20.39-11.5-30.91-16.64C240.13,13.35,228,7.88,215.23,6.22
				c-11.66-1.52-23.72-0.47-34.85,3.38c-5.79,2.01-11.38,4.67-16.56,7.95c-5.17,3.28-9.63,7.31-13.66,11.92
				c-4.14,4.73-8.04,9.87-10.59,15.65c-2.55,5.8-4.3,11.86-5.29,18.12c-1.87,11.85-1.29,23.93-2.45,35.86
				c-1.07,11.09-3.04,22.34-6.23,33.37c-3.21,11.12-7.43,21.29-13.43,31.22c-2.88,4.77-5.97,9.54-9.72,13.46
				c-4.09,4.28-8.65,8.08-12.94,12.15c-4.42,4.19-8.01,8.79-11.5,13.77c-3.61,5.15-7.18,10.31-10.71,15.51
				c-6.9,10.16-13.62,20.46-19.93,30.99c-12.43,20.73-23.28,42.51-30.87,65.5c-1.87,5.67-3.54,11.41-5,17.2
				c-0.59,2.35,0.76,4.88,3.14,5.54C16.97,338.44,19.59,337.03,20.19,334.67L20.19,334.67z"/>
		</g>
	</g>
	<g>
		<g>
			<path class="st1" d="M226.78,46.71c2.64,5.6,9.47,6.98,15.04,7.16c5.77,0.19,12.26-0.97,16.21-5.56c1.53-1.78,1.88-4.64,0-6.36
				c-1.69-1.55-4.72-1.91-6.36,0c-0.34,0.39-0.72,0.72-1.07,1.1c-0.36,0.38,0.68-0.43-0.02,0.02c-0.19,0.12-0.37,0.25-0.56,0.36
				c-0.24,0.14-0.49,0.28-0.74,0.4c-0.1,0.05-0.2,0.1-0.3,0.15c-0.3,0.14-0.2,0.1,0.3-0.12c-0.03,0.15-1.35,0.45-1.47,0.48
				c-0.5,0.14-1.01,0.25-1.53,0.35c-0.14,0.03-1.13,0.15-0.45,0.08c0.63-0.06-0.17,0.01-0.28,0.02c-1.12,0.1-2.25,0.13-3.37,0.1
				c-0.88-0.02-2.2,0.12-3.02-0.2c0.25,0.1,0.81,0.13,0.21,0.02c-0.27-0.05-0.55-0.1-0.82-0.15c-0.48-0.1-0.97-0.22-1.44-0.36
				c-0.26-0.08-0.51-0.18-0.77-0.26c-0.56-0.17,0.93,0.5,0.05,0.01c-0.41-0.22-0.8-0.49-1.21-0.71c-0.43-0.24,0.48,0.53,0.2,0.13
				c-0.05-0.07-0.56-0.45-0.53-0.54c0,0.01,0.5,0.82,0.15,0.18c-0.15-0.28-0.31-0.54-0.44-0.83c-1.01-2.14-4.24-2.85-6.16-1.61
				C226.2,41.97,225.7,44.43,226.78,46.71L226.78,46.71z"/>
		</g>
	</g>
	<g>
		<g>
			<path class="st1" d="M146.13,59.03c-2.03,15.46-3.96,31.69,1.49,46.7c2.5,6.88,6.34,13.36,11.86,18.25
				c5.36,4.74,11.96,8.19,19,9.59c7.81,1.55,15.76,0.68,23.33-1.66c3.97-1.22,7.81-2.81,11.61-4.48c3.43-1.5,7.17-2.9,9.93-5.52
				c3.04-2.89,4.13-7.31,4.93-11.29c0.8-3.96,1.21-8.02,1.21-12.06c-0.01-7.86-1.43-15.73-3.56-23.28
				c-2.17-7.68-5.02-15.23-8.29-22.51c-3.03-6.74-7.31-12.93-12.61-18.09c-1.25-1.21-2.55-2.36-3.9-3.45c-1.83-1.48-4.6-1.92-6.36,0
				c-1.5,1.64-1.96,4.78,0,6.36c2.6,2.1,5.01,4.41,7.19,6.94c0.54,0.63,1.07,1.28,1.59,1.93c-0.57-0.73,0.26,0.36,0.31,0.42
				c0.25,0.34,0.49,0.67,0.73,1.02c0.96,1.37,1.85,2.77,2.68,4.22c0.81,1.41,1.54,2.86,2.23,4.33c0.4,0.86,0.78,1.73,1.15,2.6
				c-0.3-0.72,0.29,0.71,0.28,0.67c0.24,0.57,0.47,1.14,0.7,1.72c1.37,3.4,2.66,6.83,3.82,10.3c1.11,3.34,2.11,6.72,2.93,10.14
				c0.43,1.77,0.8,3.56,1.12,5.35c0.15,0.82,0.28,1.64,0.4,2.46c0.03,0.19,0.16,1.16,0.06,0.37c0.08,0.6,0.14,1.19,0.21,1.79
				c0.36,3.56,0.47,7.15,0.22,10.72c-0.06,0.89-0.15,1.77-0.25,2.66c-0.15,1.41,0.1-0.48-0.04,0.35c-0.06,0.37-0.11,0.74-0.17,1.1
				c-0.33,1.92-0.76,3.82-1.31,5.69c-0.12,0.41-0.27,0.82-0.39,1.23c-0.04,0.12-0.31,0.81-0.02,0.12c-0.17,0.4-0.4,0.75-0.59,1.13
				c-0.49,0.96,0.45-0.28-0.31,0.4c-0.08,0.07-1.06,0.95-0.3,0.35c-0.32,0.25-0.67,0.46-1.01,0.67c-0.76,0.46-1.55,0.85-2.35,1.23
				c-3.45,1.63-6.02,2.77-9.2,3.99c-3.42,1.31-6.92,2.43-10.51,3.16c-0.89,0.18-1.78,0.34-2.68,0.47c0.91-0.13-0.56,0.06-0.6,0.06
				c-0.3,0.03-0.6,0.06-0.9,0.08c-1.91,0.15-3.82,0.18-5.73,0.04c-0.4-0.03-0.79-0.07-1.18-0.11c-1.3-0.1,0.92,0.17-0.37-0.04
				c-0.65-0.11-1.3-0.22-1.95-0.35c-1.68-0.35-3.33-0.83-4.95-1.41c-0.25-0.09-0.5-0.18-0.74-0.28c-0.11-0.04-1.31-0.57-0.39-0.15
				c-0.72-0.32-1.44-0.66-2.14-1.03c-1.41-0.73-2.77-1.55-4.07-2.46c-0.33-0.23-0.64-0.46-0.96-0.69c-1.05-0.77,0.64,0.58-0.34-0.27
				c-0.6-0.52-1.21-1.02-1.79-1.56c-1.17-1.1-2.23-2.29-3.27-3.52c-0.86-1.02,0.48,0.7-0.3-0.38c-0.24-0.33-0.48-0.66-0.71-0.99
				c-0.46-0.67-0.91-1.36-1.33-2.05c-0.84-1.4-1.6-2.85-2.27-4.33c-0.04-0.09-0.57-1.33-0.2-0.43c-0.21-0.5-0.41-1.01-0.6-1.53
				c-0.29-0.77-0.55-1.55-0.8-2.33c-0.58-1.83-1.06-3.7-1.45-5.58c-0.17-0.81-0.31-1.62-0.45-2.43c-0.07-0.41-0.13-0.81-0.19-1.22
				c0.15,1.03-0.08-0.67-0.1-0.85c-0.22-2-0.34-4.01-0.4-6.02c-0.24-8.8,0.91-17.56,2.06-26.26c0.31-2.34-2.29-4.6-4.5-4.5
				C147.93,54.65,146.46,56.52,146.13,59.03L146.13,59.03z"/>
		</g>
	</g>
	<g>
		<g>
			<path class="st2" d="M133.11,335.94c1.49-10.02,4.65-19.66,7.94-29.21c3.37-9.78,6.58-19.64,10.25-29.31
				c0.38-0.99,0.76-1.97,1.15-2.95c0.21-0.52,0.42-1.05,0.63-1.57c0.11-0.26,0.21-0.52,0.32-0.78c0.04-0.09,0.47-1.11,0.26-0.63
				c-0.2,0.48,0.14-0.33,0.19-0.43c0.11-0.26,0.22-0.52,0.34-0.78c0.2-0.45,0.39-0.9,0.59-1.35c0.49-1.09,0.98-2.18,1.49-3.27
				c1.9-4.09,3.95-8.1,6.14-12.04c4.34-7.82,9.22-15.34,14.59-22.49c0.38-0.51,0.77-1.01,1.15-1.51c0.44-0.58-0.38,0.48,0.07-0.09
				c0.22-0.28,0.43-0.56,0.65-0.83c0.78-1,1.58-1.98,2.38-2.97c1.61-1.96,3.25-3.89,4.93-5.79c3.37-3.79,6.88-7.45,10.54-10.97
				c1.7-1.64,1.77-4.74,0-6.36c-1.82-1.67-4.55-1.75-6.36,0c-13.25,12.76-24.74,27.43-33.96,43.35c-4.72,8.14-8.8,16.63-12.33,25.35
				c-3.84,9.49-6.96,19.28-10.3,28.95c-3.77,10.9-7.65,21.85-9.35,33.31c-0.34,2.32,0.58,4.95,3.14,5.54
				C129.71,339.57,132.74,338.43,133.11,335.94L133.11,335.94z"/>
		</g>
	</g>
	<g>
		<g>
			<path class="st2" d="M203.72,154.48c-5.63,6.61-9.45,14.24-11.58,22.65c-1.12,4.43-2.19,8.91-2.69,13.46
				c-0.24,2.15-0.2,4.3-0.22,6.46c-0.01,1.06-0.07,2.12-0.12,3.18c-0.05,0.95,0.14-0.42-0.07,0.59c-0.13,0.59-0.26,1.17-0.43,1.76
				c-0.66,2.26,0.8,5,3.14,5.54c2.41,0.55,4.83-0.72,5.54-3.14c1.24-4.25,0.73-8.61,1.04-12.96c0.03-0.47,0.08-0.94,0.13-1.42
				c0.07-0.56,0.07-0.63,0.02-0.21c0.03-0.23,0.07-0.47,0.11-0.7c0.16-1.01,0.36-2.02,0.57-3.03c0.44-2.08,0.94-4.15,1.44-6.21
				c0.5-2.02,1.03-4.04,1.71-6c0.28-0.81,0.59-1.62,0.91-2.41c-0.32,0.79,0.34-0.76,0.4-0.9c0.18-0.39,0.36-0.78,0.56-1.16
				c0.82-1.67,1.75-3.29,2.76-4.86c0.55-0.84,1.12-1.66,1.71-2.47c0.82-1.13-0.53,0.64,0.34-0.45c0.36-0.45,0.72-0.89,1.1-1.32
				c1.52-1.79,1.89-4.63,0-6.36C208.41,152.94,205.35,152.57,203.72,154.48L203.72,154.48z"/>
		</g>
	</g>
	<g>
		<g>
			<path class="st2" d="M205.41,158.75c1.2,1.13,2.46,2.18,3.69,3.27c0.56,0.5,1.12,1.01,1.65,1.54c0.23,0.24,0.46,0.48,0.69,0.73
				c0.18,0.2,0.35,0.4,0.51,0.61c-0.3-0.39-0.3-0.37,0,0.05c1.35,2.25,2.8,4.45,4.2,6.67c2.94,4.67,6.02,9.32,9.77,13.39
				c3.77,4.09,8.31,7.37,13.57,9.25c5.54,1.98,11.69,1.69,17.48,2.31c0.4,0.04,0.8,0.09,1.2,0.13c0.27,0.03,0.53,0.06,0.8,0.1
				c-0.53-0.07-0.53-0.07,0,0c0.79,0.12,1.58,0.24,2.37,0.39c1.56,0.29,3.1,0.64,4.62,1.09c0.88,0.26,1.74,0.55,2.6,0.88
				c0.24,0.09,0.49,0.19,0.73,0.29c-0.95-0.4,0.54,0.27,0.7,0.35c0.7,0.35,1.39,0.72,2.06,1.13c0.34,0.2,0.67,0.42,1,0.64
				c0.14,0.09,1.45,1.06,0.7,0.48c1.85,1.45,4.58,1.94,6.36,0c1.48-1.62,1.98-4.82,0-6.36c-5.16-4.03-11.12-6.31-17.56-7.37
				c-3.25-0.53-6.53-0.86-9.81-1.12c-1.41-0.11-2.81-0.21-4.22-0.31c-0.8-0.06-1.59-0.12-2.39-0.19c0.16,0.01,0.96,0.16,0.12,0.01
				c-0.47-0.08-0.93-0.16-1.39-0.26c-1.23-0.27-2.41-0.66-3.6-1.09c-0.22-0.08-0.76-0.36,0.15,0.07c-0.3-0.14-0.6-0.27-0.9-0.42
				c-0.59-0.29-1.17-0.6-1.74-0.94c-0.57-0.33-1.12-0.69-1.66-1.06c-0.27-0.19-1.59-1.22-0.67-0.47c-1.03-0.85-2.03-1.72-2.97-2.66
				c-0.8-0.8-1.56-1.63-2.3-2.49c-0.45-0.52-0.88-1.06-1.31-1.59c-0.52-0.64-0.03-0.03,0.06,0.09c-0.28-0.37-0.56-0.74-0.84-1.12
				c-1.54-2.1-2.98-4.27-4.38-6.46c-1.61-2.52-3.14-5.08-4.78-7.59c-2.18-3.34-5.28-5.63-8.14-8.32c-1.71-1.61-4.69-1.83-6.36,0
				C203.81,154.14,203.58,157.03,205.41,158.75L205.41,158.75z"/>
		</g>
	</g>
	<g>
		<g>
			<path class="st2" d="M269.49,199.82c0.29,0.18,0.57,0.37,0.85,0.57c0.02,0.02,0.35,0.26,0.35,0.26c-0.03,0.03-0.69-0.6-0.35-0.26
				c0.51,0.5,1.05,0.93,1.54,1.45c0.19,0.21,0.38,0.42,0.56,0.63c0.06,0.07,0.31,0.43,0.36,0.43c-0.02,0-0.53-0.74-0.28-0.35
				c0.36,0.55,0.75,1.08,1.1,1.65c0.32,0.53,0.62,1.08,0.9,1.63c0.15,0.3,0.3,0.61,0.44,0.91c0.1,0.22,0.6,1.28,0.31,0.67
				c-0.31-0.65,0.17,0.42,0.22,0.56c0.11,0.28,0.21,0.56,0.32,0.84c0.24,0.66,0.47,1.33,0.7,2c1.86,5.61,3.16,11.42,5.84,16.72
				c1.3,2.58,3.03,5.06,5.17,7.01c2.71,2.47,5.9,3.86,9.16,5.44c0.75,0.36,1.49,0.74,2.2,1.16c0.38,0.23,0.74,0.5,1.11,0.72
				c0.43,0.25-0.09-0.08-0.15-0.13c0.24,0.2,0.48,0.41,0.72,0.63c0.27,0.25,0.5,0.55,0.76,0.8c0.46,0.44-0.37-0.6-0.03-0.06
				c0.1,0.15,0.21,0.3,0.3,0.45c0.19,0.3,0.38,0.62,0.54,0.93c0.11,0.21,0.21,0.43,0.32,0.65c-0.17-0.34-0.2-0.54-0.05-0.07
				c0.26,0.82,0.49,1.62,0.65,2.47c0.17,0.87-0.02-0.62,0.03,0.27c0.03,0.49,0.06,0.99,0.06,1.48c0,0.37-0.01,0.74-0.03,1.12
				c-0.01,0.25-0.04,0.49-0.06,0.74c-0.01,0.09-0.1,0.71-0.01,0.14c0.09-0.57-0.01,0.05-0.03,0.13c-0.05,0.24-0.09,0.48-0.14,0.72
				c-0.1,0.48-0.23,0.95-0.36,1.42c-0.16,0.56-0.34,1.12-0.54,1.67c-0.07,0.21-0.15,0.41-0.23,0.61c-0.49,1.27,0.21-0.36-0.14,0.34
				c-0.49,0.99-0.95,1.98-1.48,2.95c-1.1,2-2.35,3.92-3.59,5.84c-2.78,4.27-5.56,8.53-8.33,12.8c-1.29,1.98-0.46,5.06,1.61,6.16
				c2.24,1.19,4.78,0.5,6.16-1.61c2.56-3.93,5.12-7.87,7.68-11.8c2.45-3.76,4.81-7.5,6.53-11.66c3.09-7.5,2.91-17.54-3.67-23.22
				c-3.08-2.67-6.82-3.88-10.31-5.84c-0.39-0.22-0.77-0.45-1.15-0.7c-0.16-0.1-0.32-0.22-0.48-0.32c-0.58-0.37,0.19,0.18,0.21,0.18
				c-0.25,0.07-1.3-1.14-1.5-1.34c-0.16-0.16-1.22-1.52-1.32-1.49c0.05-0.01,0.65,0.91,0.19,0.23c-0.08-0.12-0.17-0.23-0.25-0.35
				c-0.22-0.31-0.43-0.63-0.63-0.96c-0.36-0.57-0.69-1.16-1-1.76c-0.15-0.28-1.05-1.71-0.94-1.99c0.01-0.01,0.35,0.86,0.16,0.39
				c-0.07-0.19-0.15-0.37-0.22-0.55c-0.13-0.33-0.25-0.65-0.38-0.98c-0.26-0.71-0.51-1.43-0.75-2.15c-0.92-2.78-1.68-5.6-2.57-8.39
				c-2.17-6.87-5.21-13.55-11.52-17.53c-1.99-1.26-5.05-0.48-6.16,1.61C266.7,195.88,267.36,198.48,269.49,199.82L269.49,199.82z"/>
		</g>
	</g>
	<g>
		<g>
			<path class="st2" d="M291.23,274.27c0.18-1.33,0-0.02-0.14,0.1c0.07-0.16,0.13-0.32,0.2-0.48c-0.1,0.19-0.21,0.38-0.32,0.56
				c-0.47,0.86,0.65-0.51-0.12,0.11c-0.16,0.13-1.03,0.82-0.11,0.17c-0.48,0.34-0.98,0.6-1.49,0.88c0.94-0.52,0.01-0.01-0.23,0.07
				c-0.45,0.15-0.9,0.24-1.35,0.36c-0.24,0.06-0.82,0.28,0.17-0.01c-0.42,0.12-0.99,0.07-1.42,0.08c-0.95,0.02-1.9-0.03-2.84-0.1
				c-1.9-0.14-3.79-0.39-5.69-0.39c-3.93,0.01-7.7,1.1-11.41,2.29c-3.01,0.97-6.01,1.95-8.92,3.16
				c-6.55,2.72-12.26,6.45-16.39,12.33c-3.91,5.57-5.76,12.39-6.33,19.1c-0.74,8.63,0.96,17.31,2.77,25.7
				c0.5,2.3,3.31,3.86,5.54,3.14c2.43-0.79,3.68-3.07,3.14-5.54c-1.62-7.53-2.92-13.84-2.56-21.54c0.04-0.86,0.1-1.71,0.19-2.57
				c0.01-0.14,0.2-1.46,0.04-0.4c0.04-0.26,0.08-0.53,0.12-0.79c0.26-1.59,0.62-3.16,1.08-4.7c0.23-0.77,0.48-1.53,0.77-2.28
				c0.04-0.11,0.54-1.33,0.14-0.41c0.1-0.24,0.21-0.49,0.33-0.73c0.66-1.44,1.44-2.83,2.33-4.14c0.22-0.33,0.45-0.65,0.69-0.97
				c-0.59,0.79,0.21-0.24,0.28-0.33c0.43-0.5,0.87-0.99,1.34-1.46c0.57-0.58,1.18-1.1,1.79-1.64c0.96-0.85-0.42,0.27,0.21-0.17
				c0.39-0.27,0.76-0.55,1.16-0.82c1.24-0.83,2.53-1.57,3.87-2.23c0.73-0.37,1.48-0.7,2.22-1.04c1.2-0.53-0.49,0.17,0.25-0.1
				c0.45-0.17,0.89-0.36,1.34-0.53c3.05-1.16,6.17-2.18,9.29-3.12c3.78-1.14,6.04-1.42,10.06-1.07c4.25,0.37,8.3,0.55,12.27-1.27
				c1.57-0.72,3.06-1.78,4.18-3.1c1.56-1.84,2.27-3.8,2.58-6.17c0.31-2.34-2.29-4.6-4.5-4.5
				C293.02,269.9,291.56,271.76,291.23,274.27L291.23,274.27z"/>
		</g>
	</g>
	<g>
		<g>
			<path class="st2" d="M248.77,224.38c1.18,2.91,2.56,5.43,5.6,6.71c2.42,1.02,5.43,0.99,8.04,0.93c2.76-0.06,5.46-0.57,7.92-1.86
				c2.61-1.37,4.31-3.54,5.43-6.21c0.42-1,0.06-2.58-0.45-3.47c-0.55-0.93-1.62-1.82-2.69-2.07c-1.15-0.26-2.44-0.21-3.47,0.45
				c-1.05,0.68-1.59,1.54-2.07,2.69c0.07-0.17,0.44-0.86,0.12-0.37c-0.07,0.11-0.24,0.31-0.27,0.44c0.04-0.15,0.65-0.75,0.23-0.3
				c-0.12,0.13-0.23,0.26-0.36,0.38c-0.12,0.12-0.29,0.22-0.39,0.35c0.49-0.66,0.58-0.42,0.17-0.15c-0.29,0.2-0.6,0.37-0.92,0.53
				c-0.14,0.07-0.73,0.33-0.07,0.05c0.66-0.28,0.06-0.04-0.08,0.01c-0.37,0.13-0.74,0.23-1.12,0.31c-0.22,0.05-0.44,0.08-0.66,0.13
				c-0.62,0.14,0.83-0.06,0.2-0.03c-0.51,0.03-1.01,0.08-1.52,0.09c-0.9,0.02-1.81-0.01-2.71-0.05c-0.42-0.02-0.85-0.04-1.27-0.06
				c-0.18-0.01-0.42-0.08-0.6-0.05c0.23-0.03,0.92,0.19,0.32,0.03c-0.1-0.03-0.49-0.18-0.57-0.15c0.15-0.06,0.84,0.47,0.28,0.11
				c-0.68-0.44,0.45,0.52,0.14,0.12c-0.08-0.11-0.53-0.6-0.09-0.06c0.43,0.53,0.05,0.03-0.03-0.11c-0.09-0.16-0.18-0.32-0.26-0.49
				c-0.08-0.17-0.16-0.34-0.24-0.5c-0.25-0.51,0.44,1.06,0.08,0.18c-0.46-1.13-0.97-2.05-2.07-2.69c-0.96-0.56-2.39-0.8-3.47-0.45
				C249.81,219.52,247.82,222.05,248.77,224.38L248.77,224.38z"/>
		</g>
	</g>
	<g>
		<g>
			<path class="st2" d="M275.38,203.19c0.04,0.02,0.08,0.03,0.12,0.05c-0.36-0.15-0.72-0.3-1.07-0.45c0.2,0.09,0.38,0.19,0.56,0.32
				c-0.3-0.23-0.61-0.47-0.91-0.7c0.17,0.14,0.32,0.28,0.47,0.45c-0.23-0.3-0.47-0.61-0.7-0.91c0.22,0.28,0.38,0.58,0.53,0.91
				c-0.15-0.36-0.3-0.72-0.45-1.07c0.41,1,0.66,2.06,0.97,3.09c0.32,1.1,0.63,2.2,0.81,3.33c0.16,1.04,1.2,2.18,2.07,2.69
				c0.96,0.56,2.39,0.8,3.47,0.45c1.09-0.35,2.14-1.03,2.69-2.07c0.15-0.36,0.3-0.72,0.45-1.07c0.21-0.8,0.21-1.6,0-2.39
				c-0.27-1.7-0.82-3.35-1.31-5c-0.31-1.03-0.64-2.1-1.19-3.03c-0.27-0.46-0.62-0.89-0.96-1.29c-0.11-0.13-0.23-0.26-0.37-0.37
				c-0.91-0.79-1.65-1.17-2.77-1.6c-1.03-0.4-2.56-0.08-3.47,0.45c-0.93,0.55-1.82,1.62-2.07,2.69c-0.26,1.15-0.21,2.44,0.45,3.47
				c0.23,0.3,0.47,0.61,0.7,0.91C273.95,202.59,274.61,202.97,275.38,203.19L275.38,203.19z"/>
		</g>
	</g>
	<g>
		<g>
			<path class="st2" d="M189.2,205.12c0.01,0.02,0.02,0.04,0.03,0.06c-0.1-0.24-0.2-0.48-0.3-0.72c0.08,0.19,0.13,0.38,0.16,0.58
				c-0.04-0.27-0.07-0.53-0.11-0.8c0.03,0.22,0.02,0.45,0,0.67c0.04-0.27,0.07-0.53,0.11-0.8c-0.04,0.27-0.11,0.53-0.21,0.78
				c0.1-0.24,0.2-0.48,0.3-0.72c-0.13,0.29-0.29,0.56-0.48,0.81c0.16-0.2,0.31-0.4,0.47-0.61c-0.29,0.37-0.64,0.69-1.02,0.98
				c0.2-0.16,0.4-0.31,0.61-0.47c-0.13,0.1-0.25,0.19-0.38,0.28c1.37,1.37,2.74,2.74,4.1,4.1c0.34-0.46,0.62-0.95,0.85-1.47
				c0.32-0.75,0.62-1.48,0.76-2.28c0.13-0.4,0.14-0.8,0.05-1.2c-0.02-0.4-0.14-0.77-0.36-1.12c-0.19-0.35-0.45-0.63-0.77-0.84
				c-0.29-0.27-0.63-0.44-1.02-0.54c-0.77-0.17-1.63-0.14-2.31,0.3c-0.62,0.4-1.24,1.04-1.38,1.79c-0.1,0.54-0.25,1.06-0.46,1.56
				c0.1-0.24,0.2-0.48,0.3-0.72c-0.23,0.52-0.51,1.02-0.85,1.47c-0.1,0.24-0.2,0.48-0.3,0.72c-0.13,0.4-0.14,0.8-0.05,1.2
				c0,0.27,0.07,0.52,0.2,0.76c0.12,0.37,0.33,0.69,0.62,0.97c0.38,0.35,0.83,0.61,1.32,0.77c0.4,0.13,0.8,0.14,1.2,0.05
				c0.4-0.02,0.77-0.14,1.12-0.36c0.56-0.39,1.12-0.8,1.6-1.28c0.48-0.47,0.92-1.02,1.24-1.62c0.21-0.41,0.4-0.84,0.53-1.28
				c0.13-0.44,0.18-0.92,0.22-1.36c0.04-0.47-0.05-0.94-0.12-1.4c-0.07-0.47-0.29-0.89-0.48-1.32c-0.19-0.35-0.45-0.63-0.77-0.84
				c-0.29-0.27-0.63-0.44-1.02-0.54c-0.4-0.13-0.8-0.14-1.2-0.05c-0.4,0.02-0.77,0.14-1.12,0.36c-0.64,0.41-1.2,1.03-1.38,1.79
				c-0.04,0.27-0.07,0.53-0.11,0.8C188.79,204.15,188.93,204.65,189.2,205.12L189.2,205.12z"/>
		</g>
	</g>
	<g>
		<g>
			<path class="st2" d="M190.35,209.43c3.86,0,3.87-6,0-6C186.48,203.43,186.48,209.43,190.35,209.43L190.35,209.43z"/>
		</g>
	</g>
	<g>
		<g>
			<path class="st2" d="M189.78,210.46c3.86,0,3.87-6,0-6C185.92,204.46,185.91,210.46,189.78,210.46L189.78,210.46z"/>
		</g>
	</g>
	<g>
		<g>
			<path class="st2" d="M191.14,207.84c3.86,0,3.87-6,0-6C187.28,201.84,187.27,207.84,191.14,207.84L191.14,207.84z"/>
		</g>
	</g>
	<g>
		<g>
			<path class="st2" d="M190.69,208.75c3.86,0,3.87-6,0-6C186.83,202.75,186.82,208.75,190.69,208.75L190.69,208.75z"/>
		</g>
	</g>
	<g>
		<g>
			<path class="st2" d="M195.01,205.57c3.86,0,3.87-6,0-6C191.15,199.57,191.14,205.57,195.01,205.57L195.01,205.57z"/>
		</g>
	</g>
	<g>
		<g>
			<path class="st2" d="M195.12,207.5c3.86,0,3.87-6,0-6C191.26,201.5,191.25,207.5,195.12,207.5L195.12,207.5z"/>
		</g>
	</g>
	<g>
		<g>
			<path class="st2" d="M255.86,227.17c3.86,0,3.87-6,0-6C252,221.17,251.99,227.17,255.86,227.17L255.86,227.17z"/>
		</g>
	</g>
	<g>
		<g>
			<path class="st2" d="M258.13,228.77c3.86,0,3.87-6,0-6C254.27,222.77,254.26,228.77,258.13,228.77L258.13,228.77z"/>
		</g>
	</g>
	<g>
		<g>
			<path class="st2" d="M254.72,226.04c3.86,0,3.87-6,0-6C250.86,220.04,250.85,226.04,254.72,226.04L254.72,226.04z"/>
		</g>
	</g>
	<g>
		<g>
			<path class="st2" d="M256.54,227.86c3.86,0,3.87-6,0-6C252.68,221.86,252.67,227.86,256.54,227.86L256.54,227.86z"/>
		</g>
	</g>
	<g>
		<g>
			<path class="st2" d="M255.63,226.83c3.86,0,3.87-6,0-6C251.77,220.83,251.76,226.83,255.63,226.83L255.63,226.83z"/>
		</g>
	</g>
	<g>
		<g>
			<path class="st2" d="M256.65,227.86c3.86,0,3.87-6,0-6C252.79,221.86,252.79,227.86,256.65,227.86L256.65,227.86z"/>
		</g>
	</g>
	<g>
		<g>
			<path class="st2" d="M295.98,271.38c-0.01,0.02-0.02,0.04-0.03,0.06c0.1-0.24,0.2-0.48,0.3-0.72c-0.11,0.26-0.25,0.5-0.42,0.72
				c0.16-0.2,0.31-0.4,0.47-0.61c-0.37,0.47-0.83,0.86-1.12,1.4c-0.17,0.31-0.27,0.66-0.49,0.95c0.16-0.2,0.31-0.4,0.47-0.61
				c-0.11,0.14-0.24,0.27-0.37,0.4c-0.3,0.3-0.56,0.64-0.81,0.99c-0.05,0.08-0.1,0.16-0.14,0.24c-0.14,0.29-0.28,0.6-0.38,0.91
				c-0.03,0.09-0.05,0.18-0.06,0.27c-0.06,0.34-0.12,0.69-0.12,1.04c-0.01,0.76,0.34,1.58,0.88,2.12c0.27,0.29,0.59,0.5,0.97,0.62
				c0.36,0.19,0.74,0.27,1.16,0.26c0.78-0.03,1.58-0.29,2.12-0.88c0.54-0.59,0.87-1.31,0.88-2.12c0-0.07,0-0.14,0.01-0.21
				c-0.04,0.27-0.07,0.53-0.11,0.8c0.02-0.17,0.07-0.32,0.13-0.47c-0.1,0.24-0.2,0.48-0.3,0.72c0.06-0.13,0.13-0.25,0.22-0.36
				c-0.16,0.2-0.31,0.4-0.47,0.61c0.12-0.15,0.26-0.28,0.4-0.42c0.3-0.3,0.57-0.64,0.8-1c0.21-0.33,0.31-0.72,0.54-1.05
				c-0.16,0.2-0.31,0.4-0.47,0.61c0.1-0.12,0.21-0.23,0.32-0.35c0.26-0.28,0.49-0.6,0.72-0.9c0.32-0.44,0.5-0.94,0.71-1.45
				c0.13-0.4,0.14-0.8,0.05-1.2c-0.02-0.4-0.14-0.77-0.36-1.12c-0.19-0.35-0.45-0.63-0.77-0.84c-0.29-0.27-0.63-0.44-1.02-0.54
				c-0.77-0.17-1.63-0.14-2.31,0.3c-0.2,0.16-0.4,0.31-0.61,0.47C296.38,270.43,296.12,270.88,295.98,271.38L295.98,271.38z"/>
		</g>
	</g>
	<g>
		<g>
			<path class="st2" d="M297.67,277.14c3.86,0,3.87-6,0-6C293.81,271.14,293.81,277.14,297.67,277.14L297.67,277.14z"/>
		</g>
	</g>
	<g>
		<g>
			<path class="st2" d="M298.09,276.38c3.86,0,3.87-6,0-6C294.23,270.38,294.22,276.38,298.09,276.38L298.09,276.38z"/>
		</g>
	</g>
	<g>
		<g>
			<path class="st2" d="M298.13,276.38c3.86,0,3.87-6,0-6C294.27,270.38,294.26,276.38,298.13,276.38L298.13,276.38z"/>
		</g>
	</g>
	<g>
		<g>
			<path class="st2" d="M299.3,274.68c3.86,0,3.87-6,0-6C295.44,268.68,295.44,274.68,299.3,274.68L299.3,274.68z"/>
		</g>
	</g>
	<g>
		<g>
			<path class="st2" d="M299.72,273.92c3.86,0,3.87-6,0-6C295.86,267.92,295.85,273.92,299.72,273.92L299.72,273.92z"/>
		</g>
	</g>
	<g>
		<g>
			<path class="st2" d="M300.29,273.09c3.86,0,3.87-6,0-6C296.43,267.09,296.42,273.09,300.29,273.09L300.29,273.09z"/>
		</g>
	</g>
	<g>
		<g>
			<path class="st2" d="M297.07,278.2c3.86,0,3.87-6,0-6C293.21,272.2,293.2,278.2,297.07,278.2L297.07,278.2z"/>
		</g>
	</g>
	<g>
		<g>
			<path class="st2" d="M294.34,282.45c3.86,0,3.87-6,0-6C290.48,276.45,290.47,282.45,294.34,282.45L294.34,282.45z"/>
		</g>
	</g>
	<g>
		<g>
			<path class="st2" d="M293.77,283.21c3.86,0,3.87-6,0-6C289.91,277.21,289.9,283.21,293.77,283.21L293.77,283.21z"/>
		</g>
	</g>
	<g>
		<g>
			<path class="st2" d="M294.56,282.22c3.86,0,3.87-6,0-6C290.7,276.22,290.7,282.22,294.56,282.22L294.56,282.22z"/>
		</g>
	</g>
	<g>
		<g>
			<path class="st2" d="M294.38,282.53c3.86,0,3.87-6,0-6C290.51,276.53,290.51,282.53,294.38,282.53L294.38,282.53z"/>
		</g>
	</g>
	<g>
		<g>
			<path class="st2" d="M295.06,281.69c3.86,0,3.87-6,0-6C291.2,275.69,291.19,281.69,295.06,281.69L295.06,281.69z"/>
		</g>
	</g>
	<g>
		<g>
			<path class="st2" d="M290.62,284.65c3.86,0,3.87-6,0-6C286.76,278.65,286.75,284.65,290.62,284.65L290.62,284.65z"/>
		</g>
	</g>
	<g>
		<g>
			<path class="st2" d="M291.3,284.46c3.86,0,3.87-6,0-6C287.44,278.46,287.44,284.46,291.3,284.46L291.3,284.46z"/>
		</g>
	</g>
	<g>
		<g>
			<path class="st2" d="M291.34,284.57c3.86,0,3.87-6,0-6C287.48,278.57,287.48,284.57,291.34,284.57L291.34,284.57z"/>
		</g>
	</g>
	<g>
		<g>
			<path class="st2" d="M291.99,284.42c3.86,0,3.87-6,0-6C288.13,278.42,288.12,284.42,291.99,284.42L291.99,284.42z"/>
		</g>
	</g>
	<g>
		<g>
			<path class="st2" d="M289.52,284.76c3.86,0,3.87-6,0-6C285.66,278.76,285.66,284.76,289.52,284.76L289.52,284.76z"/>
		</g>
	</g>
	<g>
		<g>
			<path class="st2" d="M288.46,284.84c3.86,0,3.87-6,0-6C284.6,278.84,284.59,284.84,288.46,284.84L288.46,284.84z"/>
		</g>
	</g>
	<g>
		<g>
			<path class="st1" d="M310.64,114.37c2.35,0,4.61-2.07,4.5-4.5c-0.11-2.44-1.98-4.5-4.5-4.5c-2.35,0-4.61,2.07-4.5,4.5
				C306.25,112.31,308.12,114.37,310.64,114.37L310.64,114.37z"/>
		</g>
	</g>
	<g>
		<g>
			<path class="st1" d="M308.9,116.04c2.35,0,4.61-2.07,4.5-4.5c-0.11-2.44-1.98-4.5-4.5-4.5c-2.35,0-4.61,2.07-4.5,4.5
				C304.5,113.98,306.37,116.04,308.9,116.04L308.9,116.04z"/>
		</g>
	</g>
	<g>
		<g>
			<path class="st1" d="M308.04,106.02c-0.22,0.23-0.44,0.46-0.66,0.7c-0.18,0.19-0.37,0.38-0.58,0.55c0.3-0.23,0.61-0.47,0.91-0.7
				c-0.14,0.11-0.29,0.2-0.46,0.27c0.36-0.15,0.72-0.3,1.07-0.45c-0.01,0-0.02,0.01-0.03,0.01c-0.59,0.14-1.1,0.41-1.53,0.81
				c-0.49,0.32-0.88,0.74-1.16,1.26c-0.33,0.52-0.51,1.07-0.53,1.67c-0.13,0.6-0.11,1.2,0.08,1.79c0.15,0.36,0.3,0.72,0.45,1.07
				c0.4,0.68,0.94,1.21,1.61,1.61c0.36,0.15,0.72,0.3,1.07,0.45c0.8,0.21,1.6,0.21,2.39,0c0.39-0.16,0.8-0.32,1.18-0.5
				c0.04-0.02,0.08-0.04,0.12-0.07c0.08-0.04,0.15-0.09,0.22-0.15c0.44-0.33,0.91-0.66,1.31-1.05c0.3-0.3,0.59-0.61,0.88-0.92
				c0.44-0.41,0.75-0.89,0.93-1.45c0.28-0.54,0.41-1.11,0.39-1.73c0.02-0.62-0.11-1.2-0.39-1.73c-0.18-0.56-0.49-1.04-0.93-1.45
				c-0.3-0.23-0.61-0.47-0.91-0.7c-0.7-0.41-1.46-0.61-2.27-0.61c-0.4,0.05-0.8,0.11-1.2,0.16
				C309.26,105.08,308.6,105.46,308.04,106.02L308.04,106.02z"/>
		</g>
	</g>
	<g>
		<g>
			<path class="st1" d="M307.99,116.72c2.35,0,4.61-2.07,4.5-4.5c-0.11-2.44-1.98-4.5-4.5-4.5c-2.35,0-4.61,2.07-4.5,4.5
				C303.59,114.66,305.46,116.72,307.99,116.72L307.99,116.72z"/>
		</g>
	</g>
	<g>
		<g>
			<path class="st1" d="M308.86,115.85c2.35,0,4.61-2.07,4.5-4.5c-0.11-2.44-1.98-4.5-4.5-4.5c-2.35,0-4.61,2.07-4.5,4.5
				C304.47,113.79,306.33,115.85,308.86,115.85L308.86,115.85z"/>
		</g>
	</g>
	<g>
		<g>
			<path class="st1" d="M313.33,112.63c2.35,0,4.61-2.07,4.5-4.5c-0.11-2.44-1.98-4.5-4.5-4.5c-2.35,0-4.61,2.07-4.5,4.5
				C308.94,110.56,310.81,112.63,313.33,112.63L313.33,112.63z"/>
		</g>
	</g>
	<g>
		<g>
			<path class="st1" d="M312,113.73c2.35,0,4.61-2.07,4.5-4.5c-0.11-2.44-1.98-4.5-4.5-4.5c-2.35,0-4.61,2.07-4.5,4.5
				C307.61,111.66,309.48,113.73,312,113.73L312,113.73z"/>
		</g>
	</g>
	<g>
		<g>
			<path class="st1" d="M311.47,114.33c2.35,0,4.61-2.07,4.5-4.5c-0.11-2.44-1.98-4.5-4.5-4.5c-2.35,0-4.61,2.07-4.5,4.5
				C307.08,112.27,308.95,114.33,311.47,114.33L311.47,114.33z"/>
		</g>
	</g>
	<g>
		<g>
			<path class="st1" d="M314.7,111.22c2.35,0,4.61-2.07,4.5-4.5c-0.11-2.44-1.98-4.5-4.5-4.5c-2.35,0-4.61,2.07-4.5,4.5
				C310.31,109.16,312.17,111.22,314.7,111.22L314.7,111.22z"/>
		</g>
	</g>
	<g>
		<g>
			<path class="st1" d="M315.42,110.58c2.35,0,4.61-2.07,4.5-4.5c-0.11-2.44-1.98-4.5-4.5-4.5c-2.35,0-4.61,2.07-4.5,4.5
				C311.03,108.52,312.89,110.58,315.42,110.58L315.42,110.58z"/>
		</g>
	</g>
	<g>
		<g>
			<path class="st1" d="M314.7,111.3c2.35,0,4.61-2.07,4.5-4.5c-0.11-2.44-1.98-4.5-4.5-4.5c-2.35,0-4.61,2.07-4.5,4.5
				C310.31,109.24,312.17,111.3,314.7,111.3L314.7,111.3z"/>
		</g>
	</g>
	<g>
		<g>
			<path class="st1" d="M314.77,111.3c2.35,0,4.61-2.07,4.5-4.5c-0.11-2.44-1.98-4.5-4.5-4.5c-2.35,0-4.61,2.07-4.5,4.5
				C310.38,109.24,312.25,111.3,314.77,111.3L314.77,111.3z"/>
		</g>
	</g>
	<g>
		<g>
			<path class="st1" d="M314.17,111.87c2.35,0,4.61-2.07,4.5-4.5c-0.11-2.44-1.98-4.5-4.5-4.5c-2.35,0-4.61,2.07-4.5,4.5
				C309.77,109.81,311.64,111.87,314.17,111.87L314.17,111.87z"/>
		</g>
	</g>
	<g>
		<g>
			<path class="st1" d="M315.15,110.92c2.35,0,4.61-2.07,4.5-4.5c-0.11-2.44-1.98-4.5-4.5-4.5c-2.35,0-4.61,2.07-4.5,4.5
				C310.76,108.86,312.63,110.92,315.15,110.92L315.15,110.92z"/>
		</g>
	</g>
	<g>
		<g>
			<path class="st1" d="M313.22,112.74c2.35,0,4.61-2.07,4.5-4.5c-0.11-2.44-1.98-4.5-4.5-4.5c-2.35,0-4.61,2.07-4.5,4.5
				C308.83,110.68,310.69,112.74,313.22,112.74L313.22,112.74z"/>
		</g>
	</g>
	<g>
		<g>
			<path class="st1" d="M312.88,113.08c2.35,0,4.61-2.07,4.5-4.5c-0.11-2.44-1.98-4.5-4.5-4.5c-2.35,0-4.61,2.07-4.5,4.5
				C308.49,111.02,310.35,113.08,312.88,113.08L312.88,113.08z"/>
		</g>
	</g>
	<g>
		<g>
			<path class="st1" d="M312.31,113.54c2.35,0,4.61-2.07,4.5-4.5c-0.11-2.44-1.98-4.5-4.5-4.5c-2.35,0-4.61,2.07-4.5,4.5
				C307.92,111.47,309.78,113.54,312.31,113.54L312.31,113.54z"/>
		</g>
	</g>
	<g>
		<g>
			<path class="st1" d="M306.81,117.52c2.35,0,4.61-2.07,4.5-4.5c-0.11-2.44-1.98-4.5-4.5-4.5c-2.35,0-4.61,2.07-4.5,4.5
				C302.42,115.46,304.29,117.52,306.81,117.52L306.81,117.52z"/>
		</g>
	</g>
	<g>
		<g>
			<path class="st1" d="M307.27,117.21c2.35,0,4.61-2.07,4.5-4.5c-0.11-2.44-1.98-4.5-4.5-4.5c-2.35,0-4.61,2.07-4.5,4.5
				C302.87,115.15,304.74,117.21,307.27,117.21L307.27,117.21z"/>
		</g>
	</g>
	<g>
		<g>
			<path class="st1" d="M307.72,116.8c2.35,0,4.61-2.07,4.5-4.5c-0.11-2.44-1.98-4.5-4.5-4.5c-2.35,0-4.61,2.07-4.5,4.5
				C303.33,114.74,305.2,116.8,307.72,116.8L307.72,116.8z"/>
		</g>
	</g>
	<text transform="matrix(1 0 0 1 350.8911 200.2563)" class="st1 st3 st4">Animalagro</text>
	<rect x="354.64" y="229.49" class="st5" width="435.06" height="81.19"/>
	<text transform="matrix(1 0 0 1 354.6372 268.6906)" class="st2 st6 st7">Clínica Veterinaria</text>
</g>
</svg>
